<?xml version="1.0" encoding="UTF-8" standalone="no"?>
<!-- Created with Inkscape (http://www.inkscape.org/) -->

<svg
   width="10in"
   height="1in"
   viewBox="0 0 254 25.399999"
   version="1.1"
   id="svg5"
   inkscape:version="1.1.2 (b8e25be833, 2022-02-05)"
   sodipodi:docname="drawing.svg"
   xmlns:inkscape="http://www.inkscape.org/namespaces/inkscape"
   xmlns:sodipodi="http://sodipodi.sourceforge.net/DTD/sodipodi-0.dtd"
   xmlns="http://www.w3.org/2000/svg"
   xmlns:svg="http://www.w3.org/2000/svg">
  <sodipodi:namedview
     id="namedview7"
     pagecolor="#ffffff"
     bordercolor="#666666"
     borderopacity="1.0"
     inkscape:pageshadow="2"
     inkscape:pageopacity="0.0"
     inkscape:pagecheckerboard="0"
     inkscape:document-units="mm"
     showgrid="false"
     inkscape:zoom="0.74029883"
     inkscape:cx="334.32445"
     inkscape:cy="-28.366923"
     inkscape:window-width="1920"
     inkscape:window-height="1017"
     inkscape:window-x="-8"
     inkscape:window-y="-8"
     inkscape:window-maximized="1"
     inkscape:current-layer="layer1"
     units="in" />
  <defs
     id="defs2" />
  <g
     inkscape:groupmode="layer"
     id="layer2"
     inkscape:label="Layer 2"
     style="display:inline">
    <ellipse
       style="fill:#000000;stroke-width:0.0563407"
       id="path81"
       cx="243.71581"
       cy="8.3104963"
       rx="8.0730543"
       ry="6.8809037" />
    <ellipse
       style="display:inline;fill:#000000;stroke-width:0.0243688"
       id="path81-5"
       cx="243.45413"
       cy="13.58497"
       rx="5.7931643"
       ry="1.7938538" />
    <rect
       style="fill:#000000;stroke-width:0.0510928"
       id="rect1473"
       width="1.9657037"
       height="4.0127854"
       x="15.561829"
       y="18.180447" />
    <rect
       style="fill:#000000;stroke-width:0.0319493"
       id="rect1475"
       width="3.358078"
       height="4.7222252"
       x="14.906596"
       y="17.81996"
       ry="0.9539848" />
    <ellipse
       style="fill:#ff6600;stroke-width:0.0510928"
       id="path1619"
       ry="1.6865337"
       rx="0.85999519"
       cy="16.493923"
       cx="16.667538" />
    <ellipse
       style="fill:#ff6600;stroke-width:0.0510928"
       id="path1621"
       cx="16.667538"
       cy="15.56342"
       rx="0.040952176"
       ry="0.058156312" />
    <path
       style="fill:#ffcc00"
       id="path1673"
       sodipodi:type="arc"
       sodipodi:cx="16.67395"
       sodipodi:cy="16.492338"
       sodipodi:rx="0.52855366"
       sodipodi:ry="1.557259"
       sodipodi:start="0.19854651"
       sodipodi:end="0.18509296"
       sodipodi:arc-type="arc"
       d="m 17.19212,16.799499 a 0.52855366,1.557259 0 0 1 -0.620681,1.220529 0.52855366,1.557259 0 0 1 -0.416348,-1.824574 0.52855366,1.557259 0 0 1 0.61788,-1.232803 0.52855366,1.557259 0 0 1 0.420505,1.816282"
       sodipodi:open="true" />
  </g>
  <g
     inkscape:label="Layer 1"
     inkscape:groupmode="layer"
     id="layer1">
    <ellipse
       style="fill:#f2f2f2;stroke-width:0.0468365"
       id="path53"
       cx="243.52888"
       cy="7.9624424"
       rx="7.5871754"
       ry="6.2115545" />
    <ellipse
       style="fill:#f2f2f2;stroke-width:0.0468365"
       id="path55"
       cx="243.11775"
       cy="13.397553"
       rx="3.5880237"
       ry="1.419019" />
    <ellipse
       style="fill:#f2f2f2;stroke-width:0.0468365"
       id="path57"
       cx="243.52888"
       cy="14.17399"
       rx="0.33637723"
       ry="0.3212873" />
    <ellipse
       style="display:inline;fill:#000000;stroke-width:0.0159122"
       id="path81-4"
       cx="240.57626"
       cy="5.6063352"
       rx="2.0182645"
       ry="2.1954629" />
    <ellipse
       style="display:inline;fill:#000000;stroke-width:0.0159122"
       id="path81-4-3"
       cx="245.95827"
       cy="5.6063352"
       rx="2.0182645"
       ry="2.1954629" />
    <ellipse
       style="display:inline;fill:#000000;stroke-width:0.0099208"
       id="path81-4-3-9"
       cx="-243.49153"
       cy="-11.660439"
       rx="4.6345315"
       ry="0.37163794"
       transform="scale(-1)" />
    <ellipse
       style="display:inline;fill:#000000;stroke-width:0.00648592"
       id="path81-4-3-9-2"
       cx="-11.523379"
       cy="240.65102"
       rx="1.4190193"
       ry="0.51879025"
       transform="rotate(-90)" />
    <ellipse
       style="display:inline;fill:#000000;stroke-width:0.00648592"
       id="path81-4-3-9-2-0"
       cx="-11.550147"
       cy="243.34203"
       rx="1.4190193"
       ry="0.51879025"
       transform="rotate(-90)" />
    <ellipse
       style="display:inline;fill:#000000;stroke-width:0.00648592"
       id="path81-4-3-9-2-2"
       cx="-11.603696"
       cy="245.88356"
       rx="1.4190193"
       ry="0.51879025"
       transform="rotate(-90)" />
    <ellipse
       style="display:inline;fill:#000000;stroke-width:0.00485482"
       id="path81-4-3-9-2-2-2"
       cx="-8.7924366"
       cy="243.00565"
       rx="0.85676652"
       ry="0.48141503"
       transform="rotate(-90)" />
    <ellipse
       style="display:inline;fill:#000000;stroke-width:0.0614604"
       id="path81-7"
       cx="-9.8285236"
       cy="8.3665714"
       rx="8.8456717"
       ry="7.4730878"
       transform="scale(-1,1)" />
    <ellipse
       style="display:inline;fill:#000000;stroke-width:0.0265833"
       id="path81-5-0"
       cx="-10.115193"
       cy="14.094977"
       rx="6.3475881"
       ry="1.9482362"
       transform="scale(-1,1)" />
    <ellipse
       style="fill:#f2f2f2;stroke-width:0.0510928"
       id="path53-7"
       cx="-10.03329"
       cy="7.9885569"
       rx="8.3132915"
       ry="6.7461333"
       transform="scale(-1,1)" />
    <ellipse
       style="fill:#f2f2f2;stroke-width:0.0510928"
       id="path55-1"
       cx="-10.483765"
       cy="13.89143"
       rx="3.9314089"
       ry="1.5411425"
       transform="scale(-1,1)" />
    <ellipse
       style="fill:#f2f2f2;stroke-width:0.0510928"
       id="path57-3"
       cx="-10.03329"
       cy="14.73469"
       rx="0.36856964"
       ry="0.34893793"
       transform="scale(-1,1)" />
    <ellipse
       style="display:inline;fill:#000000;stroke-width:0.0173583"
       id="path81-4-4"
       cx="-13.268508"
       cy="5.429678"
       rx="2.2114186"
       ry="2.384409"
       transform="scale(-1,1)" />
    <ellipse
       style="display:inline;fill:#000000;stroke-width:0.0173583"
       id="path81-4-3-7"
       cx="-7.371397"
       cy="5.429678"
       rx="2.2114186"
       ry="2.384409"
       transform="scale(-1,1)" />
    <ellipse
       style="display:inline;fill:#000000;stroke-width:0.0108222"
       id="path81-4-3-9-9"
       cx="10.07424"
       cy="-12.004808"
       rx="5.0780706"
       ry="0.40362185"
       transform="scale(1,-1)" />
    <ellipse
       style="display:inline;fill:#000000;stroke-width:0.00707529"
       id="path81-4-3-9-2-5"
       cx="-11.855954"
       cy="-13.18661"
       rx="1.5411431"
       ry="0.56844014"
       transform="matrix(0,-1,-1,0,0,0)" />
    <ellipse
       style="display:inline;fill:#000000;stroke-width:0.00707529"
       id="path81-4-3-9-2-0-9"
       cx="-11.88504"
       cy="-10.23805"
       rx="1.5411431"
       ry="0.56844014"
       transform="matrix(0,-1,-1,0,0,0)" />
    <ellipse
       style="display:inline;fill:#000000;stroke-width:0.00707529"
       id="path81-4-3-9-2-2-20"
       cx="-11.943188"
       cy="-7.4533033"
       rx="1.5411431"
       ry="0.56844014"
       transform="matrix(0,-1,-1,0,0,0)" />
    <ellipse
       style="display:inline;fill:#000000;stroke-width:0.00529596"
       id="path81-4-3-9-2-2-2-2"
       cx="-8.889987"
       cy="-10.606625"
       rx="0.93050152"
       ry="0.52748793"
       transform="matrix(0,-1,-1,0,0,0)" />
    <rect
       style="fill:#ffeeaa;stroke-width:0.0510928"
       id="rect1449"
       width="1.9657044"
       height="4.0127864"
       x="15.561829"
       y="18.180447"
       ry="0.17446896" />
    <rect
       style="display:inline;fill:#000000;stroke-width:0.0510928"
       id="rect1473-7"
       width="1.9657037"
       height="4.0127854"
       x="10.197089"
       y="20.477627" />
    <rect
       style="display:inline;fill:#000000;stroke-width:0.0319493"
       id="rect1475-9"
       width="3.358078"
       height="4.7222252"
       x="9.5418549"
       y="20.117126"
       ry="0.9539848" />
    <ellipse
       style="display:inline;fill:#ff6600;stroke-width:0.0510928"
       id="path1619-9"
       ry="1.6865337"
       rx="0.85999519"
       cy="18.791094"
       cx="11.302798" />
    <ellipse
       style="display:inline;fill:#ff6600;stroke-width:0.0510928"
       id="path1621-7"
       cx="11.302798"
       cy="17.86059"
       rx="0.040952176"
       ry="0.058156312" />
    <path
       style="display:inline;fill:#ffcc00"
       id="path1673-2"
       sodipodi:type="arc"
       sodipodi:cx="11.309211"
       sodipodi:cy="18.789511"
       sodipodi:rx="0.52855366"
       sodipodi:ry="1.557259"
       sodipodi:start="0.19854651"
       sodipodi:end="0.18509296"
       sodipodi:arc-type="arc"
       sodipodi:open="true"
       d="m 11.827381,19.096672 a 0.52855366,1.557259 0 0 1 -0.620681,1.220529 0.52855366,1.557259 0 0 1 -0.416349,-1.824575 0.52855366,1.557259 0 0 1 0.61788,-1.232802 0.52855366,1.557259 0 0 1 0.420505,1.816281" />
    <rect
       style="fill:#ffeeaa;stroke-width:0.0510928"
       id="rect1449-6"
       width="1.9657044"
       height="4.0127864"
       x="10.197089"
       y="20.477627"
       ry="0.17446896" />
    <rect
       style="display:inline;fill:#000000;stroke-width:0.0510928"
       id="rect1473-6"
       width="1.9657037"
       height="4.0127854"
       x="2.9895072"
       y="19.896074" />
    <rect
       style="display:inline;fill:#000000;stroke-width:0.0319493"
       id="rect1475-8"
       width="3.358078"
       height="4.7222252"
       x="2.3342731"
       y="19.535561"
       ry="0.9539848" />
    <ellipse
       style="display:inline;fill:#ff6600;stroke-width:0.0510928"
       id="path1619-6"
       ry="1.6865337"
       rx="0.85999519"
       cy="18.20953"
       cx="4.0952139" />
    <ellipse
       style="display:inline;fill:#ff6600;stroke-width:0.0510928"
       id="path1621-9"
       cx="4.0952139"
       cy="17.279028"
       rx="0.040952176"
       ry="0.058156312" />
    <path
       style="display:inline;fill:#ffcc00"
       id="path1673-0"
       sodipodi:type="arc"
       sodipodi:cx="4.1016293"
       sodipodi:cy="18.207954"
       sodipodi:rx="0.52855366"
       sodipodi:ry="1.557259"
       sodipodi:start="0.19854651"
       sodipodi:end="0.18509296"
       sodipodi:arc-type="arc"
       sodipodi:open="true"
       d="M 4.6197991,18.515115 A 0.52855366,1.557259 0 0 1 3.9991183,19.735644 0.52855366,1.557259 0 0 1 3.5827698,17.91107 0.52855366,1.557259 0 0 1 4.20065,16.678267 0.52855366,1.557259 0 0 1 4.6211548,18.494549" />
    <rect
       style="fill:#ffeeaa;stroke-width:0.0510928"
       id="rect1449-8"
       width="1.9657044"
       height="4.0127864"
       x="2.9895072"
       y="19.896074"
       ry="0.17446896" />
    <rect
       style="display:inline;fill:#000000;stroke-width:0.0468365"
       id="rect1473-66"
       width="1.7940112"
       height="3.6948035"
       x="235.23161"
       y="18.645247" />
    <rect
       style="display:inline;fill:#000000;stroke-width:0.029288"
       id="rect1475-1"
       width="3.0647697"
       height="4.3480248"
       x="234.63358"
       y="18.313307"
       ry="0.87838888" />
    <ellipse
       style="display:inline;fill:#ff6600;stroke-width:0.0468365"
       id="path1619-1"
       ry="1.552889"
       rx="0.78487968"
       cy="17.092356"
       cx="236.24074" />
    <ellipse
       style="display:inline;fill:#ff6600;stroke-width:0.0468365"
       id="path1621-4"
       cx="236.24074"
       cy="16.235582"
       rx="0.037375249"
       ry="0.053547882" />
    <path
       style="display:inline;fill:#ffcc00"
       id="path1673-00"
       sodipodi:type="arc"
       sodipodi:cx="236.24655"
       sodipodi:cy="17.090906"
       sodipodi:rx="0.48238766"
       sodipodi:ry="1.4338582"
       sodipodi:start="0.19854651"
       sodipodi:end="0.18509296"
       sodipodi:arc-type="arc"
       sodipodi:open="true"
       d="m 236.71946,17.373727 a 0.48238766,1.4338582 0 0 1 -0.56647,1.123811 0.48238766,1.4338582 0 0 1 -0.37998,-1.679991 0.48238766,1.4338582 0 0 1 0.56391,-1.135112 0.48238766,1.4338582 0 0 1 0.38378,1.672355" />
    <rect
       style="fill:#ffeeaa;stroke-width:0.0468365"
       id="rect1449-83"
       width="1.7940118"
       height="3.6948037"
       x="235.23161"
       y="18.645247"
       ry="0.16064365" />
    <rect
       style="display:inline;fill:#000000;stroke-width:0.0468365"
       id="rect1473-3"
       width="1.7940112"
       height="3.6948035"
       x="240.9874"
       y="20.465872" />
    <rect
       style="display:inline;fill:#000000;stroke-width:0.029288"
       id="rect1475-0"
       width="3.0647697"
       height="4.3480248"
       x="240.3894"
       y="20.13394"
       ry="0.87838888" />
    <ellipse
       style="display:inline;fill:#ff6600;stroke-width:0.0468365"
       id="path1619-7"
       ry="1.552889"
       rx="0.78487968"
       cy="18.912981"
       cx="241.99652" />
    <ellipse
       style="display:inline;fill:#ff6600;stroke-width:0.0468365"
       id="path1621-70"
       cx="241.99652"
       cy="18.056219"
       rx="0.037375249"
       ry="0.053547882" />
    <path
       style="display:inline;fill:#ffcc00"
       id="path1673-3"
       sodipodi:type="arc"
       sodipodi:cx="242.00238"
       sodipodi:cy="18.911522"
       sodipodi:rx="0.48238766"
       sodipodi:ry="1.4338582"
       sodipodi:start="0.19854651"
       sodipodi:end="0.18509296"
       sodipodi:arc-type="arc"
       sodipodi:open="true"
       d="m 242.47529,19.194343 a 0.48238766,1.4338582 0 0 1 -0.56647,1.123811 0.48238766,1.4338582 0 0 1 -0.37998,-1.679991 0.48238766,1.4338582 0 0 1 0.56391,-1.135112 0.48238766,1.4338582 0 0 1 0.38378,1.672355" />
    <rect
       style="fill:#ffeeaa;stroke-width:0.0468365"
       id="rect1449-3"
       width="1.7940118"
       height="3.6948037"
       x="240.9874"
       y="20.465872"
       ry="0.16064365" />
    <rect
       style="display:inline;fill:#000000;stroke-width:0.0468365"
       id="rect1473-79"
       width="1.7940112"
       height="3.6948035"
       x="248.23819"
       y="19.234264" />
    <rect
       style="display:inline;fill:#000000;stroke-width:0.029288"
       id="rect1475-00"
       width="3.0647697"
       height="4.3480248"
       x="247.6402"
       y="18.902334"
       ry="0.87838888" />
    <ellipse
       style="display:inline;fill:#ff6600;stroke-width:0.0468365"
       id="path1619-61"
       ry="1.552889"
       rx="0.78487968"
       cy="17.681376"
       cx="249.24731" />
    <ellipse
       style="display:inline;fill:#ff6600;stroke-width:0.0468365"
       id="path1621-41"
       cx="249.24731"
       cy="16.824612"
       rx="0.037375249"
       ry="0.053547882" />
    <path
       style="display:inline;fill:#ffcc00"
       id="path1673-9"
       sodipodi:type="arc"
       sodipodi:cx="249.25317"
       sodipodi:cy="17.679918"
       sodipodi:rx="0.48238766"
       sodipodi:ry="1.4338582"
       sodipodi:start="0.19854651"
       sodipodi:end="0.18509296"
       sodipodi:arc-type="arc"
       sodipodi:open="true"
       d="m 249.72608,17.962739 a 0.48238766,1.4338582 0 0 1 -0.56646,1.123812 0.48238766,1.4338582 0 0 1 -0.37999,-1.679991 0.48238766,1.4338582 0 0 1 0.56392,-1.135113 0.48238766,1.4338582 0 0 1 0.38377,1.672356" />
    <rect
       style="fill:#ffeeaa;stroke-width:0.0468365"
       id="rect1449-9"
       width="1.7940118"
       height="3.6948037"
       x="248.23819"
       y="19.234264"
       ry="0.16064365" />
  </g>
</svg>
